<!-- Climate Weather Icons -->
<svg xmlns="http://www.w3.org/2000/svg" style="display: none;">
  <!-- Weather Icons -->
  <symbol id="icon-sun" viewBox="0 0 24 24" fill="none" stroke="currentColor" stroke-width="2" stroke-linecap="round" stroke-linejoin="round">
    <circle cx="12" cy="12" r="4"/>
    <path d="M12 2v2M12 20v2M4.93 4.93l1.41 1.41M17.66 17.66l1.41 1.41M2 12h2M20 12h2M6.34 17.66l-1.41 1.41M19.07 4.93l-1.41 1.41"/>
  </symbol>
  
  <symbol id="icon-cloud" viewBox="0 0 24 24" fill="none" stroke="currentColor" stroke-width="2" stroke-linecap="round" stroke-linejoin="round">
    <path d="M17.5 19H9a7 7 0 1 1 6.71-9h1.79a4.5 4.5 0 1 1 0 9Z"/>
  </symbol>
  
  <symbol id="icon-cloud-sun" viewBox="0 0 24 24" fill="none" stroke="currentColor" stroke-width="2" stroke-linecap="round" stroke-linejoin="round">
    <path d="M12 2v2M4.93 4.93l1.41 1.41M2 12h2M20 12h2M6.34 17.66l1.41 1.41M19.07 4.93l1.41 1.41"/>
    <path d="M17.5 19H9a7 7 0 1 1 6.71-9h1.79a4.5 4.5 0 1 1 0 9Z"/>
  </symbol>
  
  <symbol id="icon-cloud-rain" viewBox="0 0 24 24" fill="none" stroke="currentColor" stroke-width="2" stroke-linecap="round" stroke-linejoin="round">
    <path d="M4 14.899A7 7 0 1 1 13.71 8H20"/>
    <path d="M16 14v6M8 14v6M12 16v6"/>
  </symbol>
  
  <symbol id="icon-cloud-snow" viewBox="0 0 24 24" fill="none" stroke="currentColor" stroke-width="2" stroke-linecap="round" stroke-linejoin="round">
    <path d="M4 14.899A7 7 0 1 1 13.71 8H20"/>
    <path d="M8 15h.01M8 19h.01M12 17h.01M12 21h.01M16 15h.01M16 19h.01"/>
  </symbol>
  
  <symbol id="icon-cloud-lightning" viewBox="0 0 24 24" fill="none" stroke="currentColor" stroke-width="2" stroke-linecap="round" stroke-linejoin="round">
    <path d="M6 16.326A7 7 0 1 1 15.71 8h1.79a4.5 4.5 0 0 1 .5 8.973"/>
    <path d="m13 12-3 5h4l-3 5"/>
  </symbol>
  
  <symbol id="icon-wind" viewBox="0 0 24 24" fill="none" stroke="currentColor" stroke-width="2" stroke-linecap="round" stroke-linejoin="round">
    <path d="M17.7 7.7a2.5 2.5 0 1 1 1.8 4.3H2"/>
    <path d="M9.6 4.6A2 2 0 1 1 11 8H2"/>
    <path d="M12.6 19.4A2 2 0 1 0 14 16H2"/>
  </symbol>
  
  <symbol id="icon-thermometer" viewBox="0 0 24 24" fill="none" stroke="currentColor" stroke-width="2" stroke-linecap="round" stroke-linejoin="round">
    <path d="M14 4v10.54a4 4 0 1 1-4 0V4a2 2 0 0 1 4 0Z"/>
  </symbol>
  
  <symbol id="icon-droplets" viewBox="0 0 24 24" fill="none" stroke="currentColor" stroke-width="2" stroke-linecap="round" stroke-linejoin="round">
    <path d="M7 16.3c2.2 0 4-1.83 4-4.05 0-1.16-.57-2.26-1.71-3.19S7.29 6.75 7 5.3c-.29 1.45-1.14 2.84-2.29 3.76S3 11.1 3 12.25c0 2.22 1.8 4.05 4 4.05z"/>
    <path d="M12.56 6.6A10.97 10.97 0 0 0 14 3.02c.5 2.5 2 4.9 4 6.5s3 3.5 3 5.5a6.98 6.98 0 0 1-11.91 4.97"/>
  </symbol>
  
  <symbol id="icon-location" viewBox="0 0 24 24" fill="none" stroke="currentColor" stroke-width="2" stroke-linecap="round" stroke-linejoin="round">
    <path d="M20 10c0 6-8 12-8 12s-8-6-8-12a8 8 0 0 1 16 0Z"/>
    <circle cx="12" cy="10" r="3"/>
  </symbol>
  
  <symbol id="icon-search" viewBox="0 0 24 24" fill="none" stroke="currentColor" stroke-width="2" stroke-linecap="round" stroke-linejoin="round">
    <circle cx="11" cy="11" r="8"/>
    <path d="m21 21-4.3-4.3"/>
  </symbol>
  
  <symbol id="icon-alert" viewBox="0 0 24 24" fill="none" stroke="currentColor" stroke-width="2" stroke-linecap="round" stroke-linejoin="round">
    <circle cx="12" cy="12" r="10"/>
    <line x1="12" y1="8" x2="12" y2="12"/>
    <line x1="12" y1="16" x2="12.01" y2="16"/>
  </symbol>
  
  <!-- Logo Mark -->
  <symbol id="icon-logo" viewBox="0 0 40 40">
    <defs>
      <linearGradient id="logoGrad" x1="0%" y1="0%" x2="100%" y2="100%">
        <stop offset="0%" stop-color="#6366f1"/>
        <stop offset="100%" stop-color="#8b5cf6"/>
      </linearGradient>
    </defs>
    <circle cx="20" cy="20" r="18" fill="none" stroke="url(#logoGrad)" stroke-width="2"/>
    <path d="M20 8 C14 8 10 14 10 18 C10 24 16 28 20 30 C24 28 30 24 30 18 C30 14 26 8 20 8" fill="url(#logoGrad)"/>
  </symbol>
</svg>
